<svg width="55" height="14" viewBox="0 0 55 14" fill="none" xmlns="http://www.w3.org/2000/svg">
    <g clip-path="url(#clip0_4010_8810)">
        <path
            d="M8.737 1.62885L8.8739 0.684115C8.90813 0.521231 8.83968 0.390923 8.737 0.260615C8.63433 0.162885 8.49743 0.0977308 8.3263 0.0977308H2.40533C2.13153 0.0977308 1.92618 0.293192 1.89195 0.521231L0.249137 10.1966C0.214912 10.3595 0.283363 10.4898 0.386038 10.6201C0.488714 10.7178 0.625615 10.8155 0.796742 10.8155H2.16575C2.43955 10.8155 2.64491 10.6201 2.67913 10.392L3.29519 6.64569H6.71771C6.99151 6.64569 7.19687 6.45023 7.23109 6.22219L7.36799 5.40777C7.40222 5.24488 7.33377 5.11458 7.23109 4.98427C7.12842 4.85396 6.99151 4.78881 6.82039 4.78881H3.60321L4.01392 2.08492H8.15517C8.49743 2.05235 8.70278 1.88946 8.737 1.62885ZM40.1216 4.85396H40.0873C39.7109 4.75623 39.3002 4.69108 38.821 4.69108C38.0681 4.69108 37.452 4.98427 37.0755 5.57065C36.699 6.15704 36.4937 6.80858 36.4937 7.49269C36.4937 7.94877 36.5621 8.30711 36.7333 8.60031C36.9044 8.8935 37.144 9.05638 37.452 9.05638C37.7943 9.05638 38.1707 8.86092 38.6157 8.43742C39.0264 8.0465 39.4371 7.55785 39.7793 7.03662L40.1216 4.85396ZM42.62 3.74635L41.5248 10.392C41.4906 10.6527 41.251 10.8155 41.0114 10.8155H40.19C40.0531 10.8155 39.9162 10.7504 39.8135 10.6527C39.7109 10.5549 39.6424 10.4246 39.6766 10.2943L39.7109 9.47988L39.6082 9.57761C39.6082 9.57761 39.3002 9.90338 38.9237 10.164C38.3761 10.5549 37.7943 10.783 37.7258 10.8155C37.3835 10.9458 37.0413 10.9784 36.6648 10.9784C35.8434 10.9784 35.2274 10.6852 34.7824 10.1314C34.3375 9.57761 34.1321 8.79577 34.1321 7.88362C34.1321 7.39496 34.1664 6.93888 34.2691 6.48281C34.3717 6.02673 34.5429 5.57065 34.7824 5.14715C35.022 4.69108 35.33 4.30015 35.7065 3.97438C36.083 3.64862 36.5621 3.35542 37.144 3.15996C37.7258 2.9645 38.4103 2.83419 39.129 2.83419C40.0189 2.83419 41.0457 2.93192 42.2093 3.15996C42.4831 3.22512 42.6542 3.48573 42.62 3.74635ZM48.4725 2.93192C47.9249 3.06223 47.3773 3.388 47.0351 3.61604C46.6244 3.90923 46.0425 4.49562 46.0425 4.49562L45.9399 4.59335L45.9741 3.55088C45.9741 3.42058 45.9399 3.29027 45.8372 3.15996C45.7345 3.06223 45.5976 2.99708 45.4607 2.99708H44.6393C44.3655 2.99708 44.1602 3.15996 44.1259 3.42058L42.9965 10.1966C42.9623 10.3595 43.0307 10.4898 43.1334 10.6201C43.2361 10.7178 43.373 10.783 43.5441 10.783H44.8104C45.0842 10.783 45.2896 10.5875 45.3238 10.3595L45.9056 6.74342C46.2479 6.28735 46.6928 5.89642 47.2062 5.57065C47.6169 5.34262 47.9934 5.17973 48.4041 5.11458C48.6094 5.082 48.8148 4.91912 48.849 4.69108L49.0886 3.45315C49.1228 3.29027 49.0544 3.12738 48.9175 2.99708C48.8148 2.93192 48.6437 2.89935 48.4725 2.93192ZM23.0089 6.31992C23.0089 5.86385 22.9405 5.5055 22.7694 5.21231C22.5982 4.91912 22.3587 4.75623 22.0506 4.75623C21.7084 4.75623 21.3319 4.95169 20.887 5.37519C20.442 5.76612 20.0656 6.25477 19.7233 6.776L19.3468 8.95865H19.3811C19.7575 9.05638 20.1682 9.12154 20.6474 9.12154C21.4346 9.12154 22.0164 8.82835 22.3929 8.24196C22.8036 7.68815 23.0089 7.03661 23.0089 6.31992ZM24.7202 3.71377C25.1651 4.26758 25.3705 5.04942 25.3705 5.929C25.3705 6.51538 25.2678 7.13435 25.0967 7.68815C24.9256 8.24196 24.6518 8.79577 24.2753 9.317C23.8988 9.83823 23.3854 10.2292 22.7351 10.5549C22.0506 10.8807 21.2634 11.011 20.3736 11.011C20.0313 11.011 19.5864 10.9784 19.0388 10.9133H18.9704L18.8677 11.8254V11.858L18.5939 13.4868C18.5597 13.7475 18.3201 13.9103 18.0805 13.9103H16.8142C16.643 13.9103 16.5061 13.8452 16.4035 13.7475C16.3008 13.6497 16.2666 13.4868 16.2666 13.324L17.9094 3.48573C17.9436 3.22512 18.1832 3.06223 18.4228 3.06223H19.2442C19.3811 3.06223 19.518 3.12738 19.6206 3.22512C19.7233 3.32285 19.7918 3.45315 19.7575 3.58346L19.826 4.36531L19.9287 4.235C19.9287 4.235 20.7158 3.32285 21.9137 2.9645C22.256 2.86677 22.564 2.80162 22.872 2.80162C23.6592 2.86677 24.2753 3.12738 24.7202 3.71377ZM54.0855 2.99708H53.0929L53.2983 1.66142C53.3325 1.49854 53.2641 1.36823 53.1614 1.23792C53.0587 1.14019 52.9218 1.07504 52.7507 1.07504H51.7582C51.5186 1.07504 51.3132 1.23792 51.2448 1.43338L50.7656 2.99708H50.218C49.9442 2.99708 49.7389 3.15996 49.7046 3.42058L49.5677 4.13727C49.5335 4.30015 49.5677 4.43046 49.7046 4.56077C49.8073 4.6585 49.9442 4.72365 50.1153 4.72365H50.4576L49.8758 8.33969C49.8415 8.56773 49.8073 8.79577 49.8073 9.05638C49.8073 9.70792 49.9784 10.164 50.3549 10.4898C50.7314 10.8155 51.279 10.9784 51.9977 10.9784C52.4427 10.9784 53.0587 10.8155 53.1272 10.783C53.1956 10.7504 53.2983 10.7178 53.2983 10.7178C53.3325 10.7178 53.3325 10.6852 53.3667 10.6852C53.5379 10.6201 53.6063 10.4572 53.6406 10.2943L53.7432 9.54504C53.7432 9.38215 53.709 9.21927 53.5721 9.12154C53.5379 9.08896 53.5037 9.05638 53.4694 9.02381C53.4352 9.02381 53.401 8.99123 53.401 8.99123C53.3667 8.99123 53.3325 8.99123 53.1272 8.99123C53.0929 8.99123 53.0245 8.99123 52.9903 8.99123C52.8876 8.99123 52.8534 8.99123 52.8191 8.99123C52.7507 8.99123 52.5453 8.92608 52.4769 8.86092C52.4427 8.82835 52.3058 8.69804 52.3058 8.27454C52.3058 8.24196 52.3058 8.17681 52.3058 8.07908L52.8534 4.75623H53.9828C54.2224 4.75623 54.462 4.59335 54.4962 4.33273L54.6331 3.61604C54.6673 3.45315 54.6331 3.32285 54.5304 3.19254C54.3935 3.09481 54.2566 2.99708 54.0855 2.99708ZM33.9268 3.22512C33.8241 3.09481 33.653 3.02965 33.4819 3.02965H32.1471C31.9075 3.02965 31.7022 3.19254 31.6337 3.388C31.531 3.74635 31.3257 4.16985 30.9834 4.6585C30.5385 5.31004 30.1962 5.73354 29.8882 5.929L29.854 5.96158C29.7513 6.02673 29.5802 6.09188 28.9984 6.18962H28.9299L29.854 0.716692C29.8882 0.553808 29.8198 0.4235 29.7171 0.293192C29.6144 0.195462 29.4775 0.0977308 29.3064 0.0977308H28.0401C27.7663 0.0977308 27.5609 0.293192 27.5267 0.521231L25.9181 10.1966C25.8839 10.3595 25.9523 10.4898 26.0208 10.6201C26.1234 10.7178 26.2603 10.8155 26.4315 10.8155H27.6978C27.9716 10.8155 28.177 10.6201 28.2112 10.392L28.6219 7.85104H29.4091L30.5043 10.4898C30.5727 10.6852 30.7781 10.8155 30.9834 10.8155H32.3524C32.6605 10.8155 32.9 10.5875 32.9 10.2943C32.9 10.2292 32.9 10.164 32.8658 10.0988L31.5995 7.03662L31.6337 7.00404C32.1471 6.54796 32.6947 5.929 33.2081 5.14715C33.5503 4.62592 33.7899 4.13727 33.9268 3.68119C34.0295 3.51831 33.9952 3.35542 33.9268 3.22512ZM15.5478 2.34554C16.0612 2.34554 16.4719 2.21523 16.7115 1.95462C16.9853 1.694 17.088 1.36823 17.088 0.944731C17.088 0.618962 16.9853 0.390923 16.8142 0.228038C16.6088 0.0651538 16.335 0 15.9585 0C15.4452 0 15.0345 0.130308 14.7949 0.390923C14.5211 0.651538 14.3842 0.977308 14.3842 1.40081C14.3842 1.72658 14.4868 1.95462 14.658 2.1175C14.8633 2.28038 15.1371 2.34554 15.5478 2.34554ZM15.9585 2.99708H14.6922C14.4184 2.99708 14.213 3.15996 14.1788 3.42058L13.0494 10.1966C13.0152 10.3595 13.0836 10.4898 13.1863 10.6201C13.289 10.7178 13.4259 10.783 13.597 10.783H14.8633C15.1371 10.783 15.3425 10.5875 15.3767 10.3595L16.5061 3.58346C16.5404 3.42058 16.4719 3.29027 16.3692 3.15996C16.2666 3.09481 16.1297 2.99708 15.9585 2.99708ZM12.3307 0.293192C12.4333 0.390923 12.4676 0.553808 12.4676 0.716692L11.2354 8.24196C11.2354 8.37227 11.2354 8.43742 11.2354 8.50258C11.2354 8.76319 11.3039 8.92608 11.3723 9.02381C11.475 9.12154 11.6804 9.15411 11.7146 9.15411C11.8173 9.15411 11.92 9.21927 12.0226 9.317C12.1253 9.41473 12.1938 9.57761 12.1595 9.70792L12.0911 10.392C12.0911 10.5223 12.0226 10.6527 11.92 10.7178C11.8173 10.783 11.7146 10.8155 11.5777 10.8807C11.4408 10.9458 11.0643 11.0436 10.7905 11.0436C10.1402 11.0436 9.59264 10.8807 9.25038 10.6201C8.90813 10.3269 8.737 9.90338 8.737 9.38215C8.737 9.21927 8.737 9.08896 8.77123 8.8935C8.77123 8.82835 10.106 0.716692 10.1402 0.618962C10.1745 0.358346 10.414 0.195462 10.6536 0.195462H11.92C12.0911 0.0977308 12.228 0.162885 12.3307 0.293192Z"
            fill="#002726" />
    </g>
    <defs>
        <clipPath id="clip0_4010_8810">
            <rect width="55" height="14" fill="white" />
        </clipPath>
    </defs>
</svg>