<svg width="524" height="111" viewBox="0 0 524 111" fill="none" xmlns="http://www.w3.org/2000/svg">
<path d="M515.5 0.5C511.082 0.5 507.5 4.08172 507.5 8.5C507.5 12.9183 511.082 16.5 515.5 16.5C519.918 16.5 523.5 12.9183 523.5 8.5C523.5 4.08172 519.918 0.5 515.5 0.5ZM4.41485e-06 109.5C4.45106e-06 110.328 0.671574 111 1.5 111C2.32843 111 3 110.328 3 109.5L4.41485e-06 109.5ZM497.5 58L497.5 56.5L497.5 58ZM19.5 58L19.5 56.5L19.5 58ZM514 12.4375C514 13.2659 514.672 13.9375 515.5 13.9375C516.328 13.9375 517 13.2659 517 12.4375L514 12.4375ZM517 20.3125C517 19.4841 516.328 18.8125 515.5 18.8125C514.672 18.8125 514 19.4841 514 20.3125L517 20.3125ZM514 28.1875C514 29.0159 514.672 29.6875 515.5 29.6875C516.328 29.6875 517 29.0159 517 28.1875L514 28.1875ZM517 36.0625C517 35.2341 516.328 34.5625 515.5 34.5625C514.672 34.5625 514 35.2341 514 36.0625L517 36.0625ZM512.749 46.3156C512.431 47.0809 512.794 47.9585 513.56 48.2758C514.325 48.5931 515.202 48.23 515.52 47.4648L512.749 46.3156ZM504.965 58.0198C505.73 57.7024 506.093 56.8248 505.776 56.0596C505.458 55.2944 504.581 54.9313 503.816 55.2486L504.965 58.0198ZM492.521 56.5C491.692 56.5 491.021 57.1716 491.021 58C491.021 58.8285 491.692 59.5 492.521 59.5L492.521 56.5ZM482.562 59.5C483.391 59.5 484.062 58.8285 484.062 58C484.062 57.1716 483.391 56.5 482.562 56.5L482.562 59.5ZM472.604 56.5C471.776 56.5 471.104 57.1716 471.104 58C471.104 58.8285 471.776 59.5 472.604 59.5L472.604 56.5ZM462.646 59.5C463.474 59.5 464.146 58.8285 464.146 58C464.146 57.1716 463.474 56.5 462.646 56.5L462.646 59.5ZM452.688 56.5C451.859 56.5 451.188 57.1716 451.188 58C451.188 58.8285 451.859 59.5 452.688 59.5L452.688 56.5ZM442.729 59.5C443.558 59.5 444.229 58.8285 444.229 58C444.229 57.1716 443.558 56.5 442.729 56.5L442.729 59.5ZM432.771 56.5C431.942 56.5 431.271 57.1716 431.271 58C431.271 58.8285 431.942 59.5 432.771 59.5L432.771 56.5ZM422.812 59.5C423.641 59.5 424.312 58.8285 424.312 58C424.312 57.1716 423.641 56.5 422.812 56.5L422.812 59.5ZM412.854 56.5C412.026 56.5 411.354 57.1716 411.354 58C411.354 58.8285 412.026 59.5 412.854 59.5L412.854 56.5ZM402.896 59.5C403.724 59.5 404.396 58.8285 404.396 58C404.396 57.1716 403.724 56.5 402.896 56.5L402.896 59.5ZM392.937 56.5C392.109 56.5 391.437 57.1716 391.437 58C391.437 58.8285 392.109 59.5 392.937 59.5L392.937 56.5ZM382.979 59.5C383.808 59.5 384.479 58.8285 384.479 58C384.479 57.1716 383.808 56.5 382.979 56.5L382.979 59.5ZM373.021 56.5C372.192 56.5 371.521 57.1716 371.521 58C371.521 58.8285 372.192 59.5 373.021 59.5L373.021 56.5ZM363.062 59.5C363.891 59.5 364.562 58.8285 364.562 58C364.562 57.1716 363.891 56.5 363.062 56.5L363.062 59.5ZM353.104 56.5C352.276 56.5 351.604 57.1716 351.604 58C351.604 58.8285 352.276 59.5 353.104 59.5L353.104 56.5ZM343.146 59.5C343.974 59.5 344.646 58.8285 344.646 58C344.646 57.1716 343.974 56.5 343.146 56.5L343.146 59.5ZM333.188 56.5C332.359 56.5 331.688 57.1716 331.688 58C331.688 58.8285 332.359 59.5 333.188 59.5L333.188 56.5ZM323.229 59.5C324.058 59.5 324.729 58.8285 324.729 58C324.729 57.1716 324.058 56.5 323.229 56.5L323.229 59.5ZM313.271 56.5C312.442 56.5 311.771 57.1716 311.771 58C311.771 58.8285 312.442 59.5 313.271 59.5L313.271 56.5ZM303.313 59.5C304.141 59.5 304.813 58.8285 304.813 58C304.813 57.1716 304.141 56.5 303.313 56.5L303.313 59.5ZM293.354 56.5C292.526 56.5 291.854 57.1716 291.854 58C291.854 58.8285 292.526 59.5 293.354 59.5L293.354 56.5ZM283.396 59.5C284.224 59.5 284.896 58.8285 284.896 58C284.896 57.1716 284.224 56.5 283.396 56.5L283.396 59.5ZM273.438 56.5C272.609 56.5 271.938 57.1716 271.938 58C271.938 58.8285 272.609 59.5 273.438 59.5L273.438 56.5ZM263.479 59.5C264.308 59.5 264.979 58.8285 264.979 58C264.979 57.1716 264.308 56.5 263.479 56.5L263.479 59.5ZM253.521 56.5C252.692 56.5 252.021 57.1716 252.021 58C252.021 58.8285 252.692 59.5 253.521 59.5L253.521 56.5ZM243.563 59.5C244.391 59.5 245.063 58.8285 245.063 58C245.063 57.1716 244.391 56.5 243.563 56.5L243.563 59.5ZM233.604 56.5C232.776 56.5 232.104 57.1716 232.104 58C232.104 58.8285 232.776 59.5 233.604 59.5L233.604 56.5ZM223.646 59.5C224.474 59.5 225.146 58.8285 225.146 58C225.146 57.1716 224.474 56.5 223.646 56.5L223.646 59.5ZM213.688 56.5C212.859 56.5 212.188 57.1716 212.188 58C212.188 58.8285 212.859 59.5 213.688 59.5L213.688 56.5ZM203.729 59.5C204.558 59.5 205.229 58.8285 205.229 58C205.229 57.1716 204.558 56.5 203.729 56.5L203.729 59.5ZM193.771 56.5C192.942 56.5 192.271 57.1716 192.271 58C192.271 58.8285 192.942 59.5 193.771 59.5L193.771 56.5ZM183.813 59.5C184.641 59.5 185.313 58.8285 185.313 58C185.313 57.1716 184.641 56.5 183.813 56.5L183.813 59.5ZM173.854 56.5C173.026 56.5 172.354 57.1716 172.354 58C172.354 58.8285 173.026 59.5 173.854 59.5L173.854 56.5ZM163.896 59.5C164.724 59.5 165.396 58.8285 165.396 58C165.396 57.1716 164.724 56.5 163.896 56.5L163.896 59.5ZM153.937 56.5C153.109 56.5 152.437 57.1716 152.437 58C152.437 58.8285 153.109 59.5 153.937 59.5L153.937 56.5ZM143.979 59.5C144.808 59.5 145.479 58.8285 145.479 58C145.479 57.1716 144.808 56.5 143.979 56.5L143.979 59.5ZM134.021 56.5C133.192 56.5 132.521 57.1716 132.521 58C132.521 58.8285 133.192 59.5 134.021 59.5L134.021 56.5ZM124.062 59.5C124.891 59.5 125.562 58.8285 125.562 58C125.562 57.1716 124.891 56.5 124.062 56.5L124.062 59.5ZM114.104 56.5C113.276 56.5 112.604 57.1716 112.604 58C112.604 58.8285 113.276 59.5 114.104 59.5L114.104 56.5ZM104.146 59.5C104.974 59.5 105.646 58.8285 105.646 58C105.646 57.1716 104.974 56.5 104.146 56.5L104.146 59.5ZM94.1874 56.5C93.359 56.5 92.6874 57.1716 92.6874 58C92.6874 58.8285 93.359 59.5 94.1874 59.5L94.1874 56.5ZM84.2291 59.5C85.0575 59.5 85.7291 58.8285 85.7291 58C85.7291 57.1716 85.0575 56.5 84.2291 56.5L84.2291 59.5ZM74.2707 56.5C73.4423 56.5 72.7707 57.1716 72.7707 58C72.7707 58.8284 73.4423 59.5 74.2707 59.5L74.2707 56.5ZM64.3124 59.5C65.1408 59.5 65.8124 58.8284 65.8124 58C65.8124 57.1716 65.1408 56.5 64.3124 56.5L64.3124 59.5ZM54.354 56.5C53.5256 56.5 52.854 57.1716 52.854 58C52.854 58.8285 53.5256 59.5 54.354 59.5L54.354 56.5ZM44.3957 59.5C45.2241 59.5 45.8957 58.8285 45.8957 58C45.8957 57.1716 45.2241 56.5 44.3957 56.5L44.3957 59.5ZM34.4373 56.5C33.6089 56.5 32.9373 57.1716 32.9373 58C32.9373 58.8285 33.6089 59.5 34.4373 59.5L34.4373 56.5ZM24.479 59.5C25.3074 59.5 25.979 58.8285 25.979 58C25.979 57.1716 25.3074 56.5 24.479 56.5L24.479 59.5ZM12.0352 57.9803C11.27 58.2976 10.9069 59.1752 11.2242 59.9405C11.5416 60.7057 12.4192 61.0688 13.1844 60.7515L12.0352 57.9803ZM4.25144 69.6844C4.56876 68.9192 4.20566 68.0416 3.44043 67.7243C2.67517 67.4069 1.79761 67.77 1.48029 68.5353L4.25144 69.6844ZM3.13356e-06 80.1875C3.16977e-06 81.016 0.671573 81.6875 1.5 81.6875C2.32843 81.6875 3 81.016 3 80.1875L3.13356e-06 80.1875ZM3 88.5625C3 87.7341 2.32843 87.0625 1.5 87.0625C0.671573 87.0625 3.46343e-06 87.7341 3.49964e-06 88.5625L3 88.5625ZM3.86573e-06 96.9375C3.90194e-06 97.766 0.671574 98.4375 1.5 98.4375C2.32843 98.4375 3 97.766 3 96.9375L3.86573e-06 96.9375ZM3 105.313C3 104.484 2.32843 103.813 1.5 103.813C0.671574 103.813 4.1956e-06 104.484 4.23181e-06 105.313L3 105.313ZM514 8.5L514 12.4375L517 12.4375L517 8.5L514 8.5ZM514 20.3125L514 28.1875L517 28.1875L517 20.3125L514 20.3125ZM514 36.0625L514 40L517 40L517 36.0625L514 36.0625ZM514 40C514 42.24 513.554 44.3722 512.749 46.3156L515.52 47.4648C516.474 45.1635 517 42.6413 517 40L514 40ZM503.816 55.2486C501.872 56.0545 499.74 56.5 497.5 56.5L497.5 59.5C500.141 59.5 502.663 58.9741 504.965 58.0198L503.816 55.2486ZM497.5 56.5L492.521 56.5L492.521 59.5L497.5 59.5L497.5 56.5ZM482.562 56.5L472.604 56.5L472.604 59.5L482.562 59.5L482.562 56.5ZM462.646 56.5L452.688 56.5L452.688 59.5L462.646 59.5L462.646 56.5ZM442.729 56.5L432.771 56.5L432.771 59.5L442.729 59.5L442.729 56.5ZM422.812 56.5L412.854 56.5L412.854 59.5L422.812 59.5L422.812 56.5ZM402.896 56.5L392.937 56.5L392.937 59.5L402.896 59.5L402.896 56.5ZM382.979 56.5L373.021 56.5L373.021 59.5L382.979 59.5L382.979 56.5ZM363.062 56.5L353.104 56.5L353.104 59.5L363.062 59.5L363.062 56.5ZM343.146 56.5L333.188 56.5L333.188 59.5L343.146 59.5L343.146 56.5ZM323.229 56.5L313.271 56.5L313.271 59.5L323.229 59.5L323.229 56.5ZM303.313 56.5L293.354 56.5L293.354 59.5L303.313 59.5L303.313 56.5ZM283.396 56.5L273.438 56.5L273.438 59.5L283.396 59.5L283.396 56.5ZM263.479 56.5L253.521 56.5L253.521 59.5L263.479 59.5L263.479 56.5ZM243.563 56.5L233.604 56.5L233.604 59.5L243.563 59.5L243.563 56.5ZM223.646 56.5L213.688 56.5L213.688 59.5L223.646 59.5L223.646 56.5ZM203.729 56.5L193.771 56.5L193.771 59.5L203.729 59.5L203.729 56.5ZM183.813 56.5L173.854 56.5L173.854 59.5L183.813 59.5L183.813 56.5ZM163.896 56.5L153.937 56.5L153.937 59.5L163.896 59.5L163.896 56.5ZM143.979 56.5L134.021 56.5L134.021 59.5L143.979 59.5L143.979 56.5ZM124.062 56.5L114.104 56.5L114.104 59.5L124.062 59.5L124.062 56.5ZM104.146 56.5L94.1874 56.5L94.1874 59.5L104.146 59.5L104.146 56.5ZM84.2291 56.5L74.2707 56.5L74.2707 59.5L84.2291 59.5L84.2291 56.5ZM64.3124 56.5L54.354 56.5L54.354 59.5L64.3124 59.5L64.3124 56.5ZM44.3957 56.5L34.4373 56.5L34.4373 59.5L44.3957 59.5L44.3957 56.5ZM24.479 56.5L19.5 56.5L19.5 59.5L24.479 59.5L24.479 56.5ZM19.5 56.5C16.8587 56.5 14.3365 57.026 12.0352 57.9803L13.1844 60.7515C15.1278 59.9456 17.26 59.5 19.5 59.5L19.5 56.5ZM1.48029 68.5353C0.525943 70.8365 2.83506e-06 73.3587 2.95052e-06 76L3 76C3 73.76 3.44556 71.6278 4.25144 69.6844L1.48029 68.5353ZM2.95052e-06 76L3.13356e-06 80.1875L3 80.1875L3 76L2.95052e-06 76ZM3.49964e-06 88.5625L3.86573e-06 96.9375L3 96.9375L3 88.5625L3.49964e-06 88.5625ZM4.23181e-06 105.313L4.41485e-06 109.5L3 109.5L3 105.313L4.23181e-06 105.313Z" fill="#4258BE"/>
</svg>
